<?xml version="1.0" encoding="utf-8"?>
<!-- Generator: Adobe Illustrator 21.1.0, SVG Export Plug-In . SVG Version: 6.00 Build 0)  -->
<svg version="1.1" id="Layer_1" xmlns="http://www.w3.org/2000/svg" xmlns:xlink="http://www.w3.org/1999/xlink" x="0px" y="0px"
	 width="360.8px" height="33.6px" viewBox="0 0 360.8 33.6" style="enable-background:new 0 0 360.8 33.6;" xml:space="preserve">
<style type="text/css">
	.st0{fill:#FFFFFF;}
	.st1{fill:#FFCB05;}
</style>
<g>
	<path class="st0" d="M56.1,0h0.5v33.4h-0.5V0L56.1,0z M56.1,0"/>
	<path class="st1" d="M23.3,27.6l-9.6-13.1V24h3.8v9.4H0V24h3.6V9.4H0V0h13.8l9.5,13.2L32.9,0h13.8v9.4h-3.6V24h3.6v9.4H29.1V24h3.8
		v-9.5L23.3,27.6L23.3,27.6z M23.3,27.6"/>
	<path class="st0" d="M197.7,33.4V33c0.5,0,0.9-0.1,0.9-0.5c0-0.1,0-0.3-0.1-0.4l-0.2-0.7h-2.5l-0.2,0.6c0,0.2-0.1,0.3-0.1,0.4
		c0,0.5,0.5,0.5,1,0.6v0.4h-2.9V33c0.7,0,1-0.2,1.3-0.9l1.9-5.2l-0.1-0.2c0.8-0.3,1-0.4,1.4-0.7c0.1,0.5,0.2,0.5,0.3,1l1.6,4.8
		c0.3,0.9,0.4,1.1,1.2,1.1v0.4H197.7L197.7,33.4z M197.1,27.7l-1,2.9h2L197.1,27.7L197.1,27.7z M172.5,31.8c-0.3,0.5-1.1,1.8-3,1.8
		c-2.1,0-3.5-1.6-3.5-3.6c0-1.9,1.2-3.8,3.6-3.8c1.3,0,1.9,0.5,2.3,0.9l0.5-0.4l0,2.1l-0.3,0.1c-0.1-0.4-0.3-0.7-0.8-1.2
		c-0.2-0.2-0.7-0.7-1.5-0.7c-1.3,0-2.3,1-2.3,2.9c0,1.6,0.8,3,2.5,3c1.2,0,1.7-0.7,2.1-1.2L172.5,31.8L172.5,31.8z M173.7,33.4V33
		c0.8-0.1,0.8-0.2,0.8-0.9c0-0.2,0-0.5,0-0.7v-3c0-0.5,0-0.9,0-1.1c0-0.4-0.2-0.5-0.8-0.5v-0.4h3v0.4c-0.6,0.1-0.8,0.1-0.9,0.5
		c-0.1,0.2-0.1,0.7-0.1,1.2v1c0.6,0,1,0.1,1.6,0.1c0.6,0,1.1,0,1.7-0.1v-1.2c0-1.3,0-1.3-1-1.4v-0.4h3.1v0.4
		c-0.8,0.1-0.8,0.1-0.8,1.5v3c0,0.3,0,1.2,0,1.4c0,0.4,0.3,0.4,0.8,0.5v0.4h-3.1V33c0.7-0.1,0.9-0.1,1-0.6c0-0.2,0-0.5,0-1v-1.3
		c-0.6,0-1-0.1-1.6-0.1c-0.6,0-1.1,0-1.7,0.1v1.3c0,1.5,0,1.5,0.9,1.6v0.4L173.7,33.4L173.7,33.4z M182.4,33.4V33
		c0.7-0.1,0.8-0.2,0.8-0.9v-0.9v-2.9c0-1.5,0-1.5-0.8-1.6v-0.4h2.9v0.4c-0.8,0.1-0.8,0.1-0.8,1.6v2.9c0,0.2,0,1,0,1.3
		c0,0.4,0.2,0.5,0.8,0.6v0.4H182.4L182.4,33.4z M162.2,33.4V33c0.7-0.1,0.8-0.2,0.8-0.9v-0.9v-2.9c0-1.5,0-1.5-0.8-1.6v-0.4h2.9v0.4
		c-0.8,0.1-0.8,0.1-0.8,1.6v2.9c0,0.2,0,1,0,1.3c0.1,0.4,0.3,0.5,0.8,0.6v0.4H162.2L162.2,33.4z M157.8,33.4V33
		c0.9-0.1,0.9-0.1,0.9-1.4V28l-2.5,5.4h-0.6l-2.3-5.5l-0.1,4.2c0,0.7,0.1,0.8,0.8,0.9v0.4h-2.4V33c0.6,0,0.8-0.1,0.8-0.6
		c0-0.2,0.1-0.8,0.1-1.2l0.1-3c0-0.2,0-0.6,0-0.8c0-0.7-0.1-0.8-0.8-0.8v-0.4h2.2l2.2,5.4l2.4-5.4h2.2v0.4c-0.8,0.1-0.9,0.1-0.8,1.2
		v2.9c0,0.5,0,1.1,0,1.4c0,0.5,0.2,0.6,0.8,0.7v0.4H157.8L157.8,33.4z M201.5,33.4V33c0.6,0,0.8,0,0.9-0.4c0.1-0.5,0.1-4.7,0.1-5.4
		c-0.4-0.4-0.6-0.4-1-0.5v-0.4h2.1c0.6,0.8,0.7,1,1.8,2.3l2,2.4v-3.2c0-1.1,0-1.2-1.2-1.2v-0.4h2.8v0.4c-0.8,0-0.8,0.2-0.9,1.3
		l-0.1,5.5h-0.4l-0.6-0.8c-0.3-0.4-0.6-0.8-1-1.2l-2.8-3.4v3.7c0,1.1,0.1,1.2,1.2,1.3v0.4H201.5L201.5,33.4z M142.5,29.8
		c0,2.4-1.7,3.7-3.5,3.7c-2.1,0-3.7-1.5-3.7-3.7c0-1.9,1.3-3.7,3.6-3.7C141,26.2,142.5,27.7,142.5,29.8L142.5,29.8z M139,32.9
		c0.4,0,1-0.2,1.4-0.9c0.5-0.8,0.6-1.5,0.6-2.4c0-0.9-0.3-1.7-0.8-2.3c-0.2-0.2-0.7-0.6-1.3-0.6c-0.6,0-1,0.4-1.2,0.6
		c-0.5,0.6-0.7,1.4-0.7,2.3c0,0.9,0.1,1.6,0.6,2.4C138,32.7,138.6,32.9,139,32.9L139,32.9z M143.2,33v0.4h2.9V33
		c-0.7-0.1-0.8-0.1-0.8-0.9l0-2h0.8c0.8,0,1.2,0.1,1.3,0.9h0.3v-2.3h-0.3c0,0.8-0.2,0.8-1.1,0.8h-0.9V27c0.2,0,0.4,0,0.8,0
		c1.4,0,1.8,0,2,1.1h0.3l-0.1-1.7h-5.2v0.4c0.5,0.1,0.7,0.1,0.8,0.4c0,0.2,0.1,1,0.1,1.3v2.5c0,0.2,0,1,0,1.2
		C144,32.8,143.9,32.9,143.2,33L143.2,33z M82.5,33.3v-0.4c0.7-0.1,0.8-0.2,0.8-0.9v-0.9v-2.9c0-1.5,0-1.5-0.8-1.6v-0.4h2.9v0.4
		c-0.8,0.1-0.8,0.1-0.8,1.6v2.9c0,0.2,0,1,0,1.3c0,0.4,0.2,0.5,0.8,0.6v0.4H82.5L82.5,33.3z M113.6,33.3v-0.4
		c0.7-0.1,0.8-0.2,0.8-0.9v-0.9v-2.9c0-1.5,0-1.5-0.8-1.6v-0.4h2.9v0.4c-0.8,0.1-0.8,0.1-0.8,1.6v2.9c0,0.2,0,1,0,1.3
		c0,0.4,0.2,0.5,0.8,0.6v0.4H113.6L113.6,33.3z M73.9,33.3v-0.4c0.6,0,0.8,0,0.9-0.4c0.1-0.5,0.1-4.7,0.1-5.4
		c-0.4-0.4-0.6-0.4-1-0.5v-0.4H76c0.6,0.8,0.7,1,1.8,2.3l2,2.4v-3.2c0-1.1,0-1.2-1.2-1.2v-0.4h2.8v0.4c-0.8,0-0.8,0.2-0.8,1.3
		l-0.1,5.5H80l-0.6-0.8c-0.3-0.4-0.6-0.8-1-1.2L75.6,28v3.7c0,1.1,0.1,1.2,1.2,1.3v0.4H73.9L73.9,33.3z M107.8,31.1l0.4,0
		c0.4,1.2,1,1.8,2.1,1.8c0.7,0,1.4-0.3,1.4-1.1c0-0.8-0.8-1.1-1.1-1.3c-0.3-0.1-0.6-0.2-0.9-0.3c-0.6-0.2-1.7-0.7-1.7-2
		c0-1.3,1-2.1,2.3-2.1c0.5,0,1,0.1,1.6,0.5l0.4-0.3l0.2,2.1l-0.4,0.1c-0.1-0.5-0.2-0.7-0.5-1c-0.3-0.4-0.8-0.6-1.4-0.6
		c-0.8,0-1.2,0.4-1.2,0.9c0,0.8,0.8,1.1,1.6,1.4c0.4,0.1,0.7,0.2,1,0.4c0.6,0.3,1,0.9,1,1.8c0,1.2-1,2.2-2.5,2.2
		c-1,0-1.6-0.4-1.8-0.6l-0.6-0.4L107.8,31.1L107.8,31.1z M119.4,33.3V33c0.6,0,0.8-0.2,0.8-0.8V27h-0.9c-0.8,0-1.3,0-1.4,1.2h-0.4
		l0.1-2h6.4l0.1,2h-0.4c-0.1-1.3-0.6-1.2-1.4-1.2h-0.9v5.2c0,0.6,0.2,0.8,0.8,0.8v0.3H119.4L119.4,33.3z M68.4,26.3v0.4
		c-0.9,0.1-0.9,0.1-1,1.6v1.7c0,0.9,0,1.6,0.5,2.3c0.4,0.5,1,0.6,1.3,0.6c1,0,1.6-0.5,1.8-1.4c0.2-0.7,0.2-1.9,0.2-2.7
		c0-0.3,0-1.1,0-1.3c0-0.6-0.4-0.7-1-0.7v-0.4H73v0.4c-0.7,0-0.8,0.1-0.8,0.8c0,0.2-0.1,2.1-0.1,2.4c0,0.5-0.1,1.1-0.2,1.6
		c-0.5,1.9-2.3,2-2.8,2c-0.4,0-1.2-0.1-1.9-0.5c-1.1-0.7-1.1-1.8-1.1-2.9v-1.6c0-0.8,0-1.1,0-1.3c-0.1-0.4-0.3-0.5-0.8-0.6v-0.4
		L68.4,26.3L68.4,26.3z M93.5,26.3v0.4c-0.7,0.1-0.8,0.3-1.4,1.7L90,33.5h-0.4l-1.9-5.2c-0.5-1.3-0.5-1.5-1.3-1.6v-0.4h3.4v0.4
		c-0.6,0-0.9,0-0.9,0.4c0,0.2,0.1,0.4,0.2,1l1.2,3.6l1.4-3.7c0.1-0.3,0.2-0.6,0.2-0.7c0-0.5-0.5-0.5-0.9-0.5v-0.4H93.5L93.5,26.3z
		 M127,33.3v-0.4c0.6-0.1,0.8-0.1,0.9-0.2c0.2-0.2,0.2-0.3,0.2-1.1v-1.2l-1.9-2.9c-0.5-0.8-0.5-0.8-1.2-0.8v-0.4h3.7v0.4
		c-0.7,0-1.1,0-1.1,0.4c0,0.2,0.1,0.4,0.3,0.7l1.1,1.8l1-1.8c0.2-0.4,0.3-0.6,0.3-0.7c0-0.3-0.3-0.3-0.8-0.4v-0.4h2.8v0.4
		c-0.7,0-0.9,0.2-1.7,1.5l-1.1,1.8v1.5c0,1.3,0,1.4,1.1,1.4v0.4L127,33.3L127,33.3z M99.6,33.3c0-0.5,0.1-1.3,0.1-1.8h-0.3
		c-0.2,1.3-0.9,1.2-2,1.2c-0.9,0-1.1-0.3-1.1-0.7v-2H97c0.9,0,1.1,0.1,1.1,0.9h0.3v-2.3h-0.3c-0.1,0.6-0.2,0.8-1.1,0.8h-0.8v-2.5
		h0.9c1.2,0,1.6,0.1,1.8,1h0.3l0-1.7h-5v0.4c0.5,0.1,0.7,0.1,0.8,0.4c0.1,0.2,0.1,1,0.1,1.3v2.5c0,0.2,0,1,0,1.2
		c0,0.8-0.1,0.8-0.8,0.9v0.4H99.6L99.6,33.3z M193.2,30.2v0.4c-0.6,0-0.6,0.2-0.7,1.6v0.5c-0.5,0.3-1.3,0.8-2.7,0.8
		c-2.4,0-3.6-1.8-3.6-3.7c0-2.3,1.5-3.7,3.5-3.7c1.2,0,1.9,0.5,2.5,0.8l0.4-0.4l0.1,2.2l-0.3,0.1c-0.1-0.4-0.4-0.9-0.9-1.4
		c-0.2-0.2-0.7-0.5-1.4-0.5c-1.2,0-2.3,1-2.3,3.1c0,1.6,0.8,3,2.2,3c0.8,0,1.2-0.6,1.2-0.6c0.1-0.2,0.2-0.4,0.1-0.7
		c0-0.9-0.2-0.9-0.9-1v-0.4H193.2L193.2,30.2z M102.8,29.5c0.2,0,0.5,0.1,0.7,0.1c0.8,0,1.4-0.6,1.4-1.2c0-0.8-0.4-1.5-1.7-1.5
		c-0.2,0-0.3,0-0.4,0V29.5L102.8,29.5z M102.8,31.1c0,1.6,0,1.8,0.9,1.9v0.4h-3v-0.4c0.8-0.1,0.8-0.2,0.9-0.9c0-0.3,0-0.6,0-0.9
		v-2.6c0-0.8,0-1.1,0-1.4c-0.1-0.4-0.2-0.5-0.8-0.5v-0.4l3.2,0c1.7,0,2.3,0.8,2.3,1.8c0,0.7-0.4,1.6-1.4,1.9l1.3,2.2
		c0.5,0.8,0.7,1,1.3,1.1v0.2c-0.2,0-0.3,0-0.5,0c-1.3,0-1.9-0.5-2.4-1.7l-0.4-0.8c-0.4-0.9-0.6-0.8-1.2-0.9V31.1L102.8,31.1z
		 M102.8,31.1"/>
	<path class="st0" d="M80.2,15.5c0,1.2-0.2,2.2-0.5,2.9s-0.8,1.3-1.5,1.8c-0.6,0.4-1.3,0.7-2.1,0.9c-0.8,0.2-1.7,0.2-2.6,0.2h-6.2
		V0.5h6.9c0.8,0,1.5,0.1,2.2,0.3C77,1,77.6,1.4,78,1.8c0.5,0.4,0.8,0.9,1.1,1.6c0.3,0.6,0.4,1.3,0.4,2.1c0,2.7-1.2,4.3-3.6,4.9v0.1
		c1.4,0.2,2.5,0.7,3.2,1.5C79.9,12.8,80.2,14,80.2,15.5L80.2,15.5z M76.9,6.1c0-0.8-0.1-1.4-0.4-1.9c-0.3-0.4-0.6-0.8-1.1-1
		C75,3,74.5,2.9,74.1,2.8c-0.5,0-0.9-0.1-1.3-0.1H70v6.6h2.7c0.5,0,0.9,0,1.4-0.1c0.5,0,0.9-0.2,1.4-0.4c0.4-0.2,0.7-0.5,1-1
		C76.7,7.5,76.9,6.9,76.9,6.1L76.9,6.1z M77.5,15.3c0-0.7-0.2-1.4-0.5-2.1c-0.3-0.6-0.9-1.1-1.7-1.3c-0.4-0.1-0.9-0.2-1.5-0.2
		c-0.6,0-1.2-0.1-2-0.1H70v7.5h1.8c0.7,0,1.4,0,2.1-0.1c0.7,0,1.3-0.2,1.8-0.4c0.5-0.3,1-0.6,1.3-1.1C77.3,17,77.5,16.3,77.5,15.3
		L77.5,15.3z M77.5,15.3"/>
	<path class="st0" d="M83.7,21.4V0.5h2.7v20.9H83.7L83.7,21.4z M83.7,21.4"/>
	<path class="st0" d="M103.1,11.5c0,1.3,0,2.6-0.1,3.8c-0.1,1.2-0.3,2.3-0.7,3.3c-0.4,1-1.1,1.8-2,2.3c-0.9,0.6-2.2,0.8-3.9,0.9
		c-1.3,0-2.4-0.2-3.2-0.6c-0.8-0.4-1.5-1-1.9-1.8c-0.5-0.8-0.8-1.6-1-2.6c-0.2-1-0.3-2.1-0.3-3.2V8.7c0-1.2,0.1-2.3,0.2-3.3
		c0.1-1.1,0.4-2,0.9-2.8c0.5-0.8,1.1-1.4,2-1.9C93.9,0.2,95,0,96.5,0c1.5,0,2.7,0.3,3.6,0.8c0.9,0.5,1.5,1.2,2,2.1
		c0.4,0.9,0.7,1.9,0.8,3c0.1,1.2,0.2,2.3,0.2,3.6V11.5L103.1,11.5z M100.4,9.1c0-0.7,0-1.5,0-2.3c0-0.8-0.1-1.6-0.4-2.2
		c-0.2-0.7-0.6-1.2-1.1-1.6c-0.5-0.4-1.3-0.6-2.3-0.7c-1.3,0-2.3,0.4-2.9,1.2c-0.6,0.8-0.9,2.1-0.9,3.9v6.2c0,1.1,0.1,2,0.2,2.7
		c0.1,0.8,0.3,1.4,0.6,1.8c0.3,0.5,0.7,0.8,1.2,1c0.5,0.2,1.1,0.3,1.8,0.3c0.9,0,1.7-0.2,2.2-0.5c0.5-0.3,0.9-0.8,1.2-1.4
		c0.2-0.6,0.4-1.3,0.5-2.2c0.1-0.9,0.1-1.9,0.1-3.1V9.1L100.4,9.1z M100.4,9.1"/>
	<path class="st0" d="M106.8,21.4V0.5h2.7v20.9H106.8L106.8,21.4z M106.8,21.4"/>
	<path class="st0" d="M124,21.4l-8.3-18.1v18.1h-2.4V0.5h3.7l8.2,17.9V0.5h2.4v20.9H124L124,21.4z M124,21.4"/>
	<path class="st0" d="M137.4,2.8v18.6h-2.7V2.8h-5.5V0.5h13.6v2.3H137.4L137.4,2.8z M137.4,2.8"/>
	<path class="st0" d="M144.3,21.4V0.5H155v2.3h-8.1v6.7h7.5v2.3h-7.5v7.3h8.3v2.3H144.3L144.3,21.4z M144.3,21.4"/>
	<path class="st0" d="M167.1,21.4c-0.1-0.3-0.2-0.7-0.3-1.1c-0.1-0.4-0.1-0.8-0.2-1.3l-0.2-3.2c0-0.8-0.1-1.4-0.2-1.9
		c-0.1-0.5-0.3-0.9-0.6-1.2c-0.3-0.3-0.7-0.6-1.2-0.7c-0.5-0.1-1.2-0.2-2-0.2h-2.4v9.6h-2.7V0.5h7.5c0.4,0,0.8,0.1,1.4,0.2
		c0.5,0.1,1,0.4,1.5,0.8c0.5,0.4,0.9,0.9,1.3,1.6c0.4,0.7,0.5,1.5,0.5,2.6c0,1.3-0.3,2.4-1,3.2c-0.7,0.8-1.6,1.4-2.8,1.6
		c0.6,0.1,1.2,0.3,1.6,0.5c0.4,0.2,0.8,0.6,1,1c0.3,0.4,0.4,0.9,0.6,1.4c0.1,0.6,0.2,1.2,0.2,1.9l0,0.8c0,0.9,0.1,1.8,0.2,2.7
		c0.1,0.9,0.3,1.7,0.5,2.6H167.1L167.1,21.4z M166.9,6c0-0.9-0.2-1.6-0.5-2c-0.3-0.4-0.7-0.8-1.1-0.9c-0.4-0.2-0.8-0.3-1.2-0.3
		c-0.4,0-0.6,0-0.8,0h-3.3v6.7h3.1c0.3,0,0.6,0,1-0.1c0.4,0,0.8-0.2,1.2-0.4c0.4-0.2,0.8-0.6,1-1C166.7,7.6,166.9,6.9,166.9,6
		L166.9,6z M166.9,6"/>
	<path class="st0" d="M174.7,2.8v6.7h7.3v2.3h-7.3v9.6H172V0.5h10.3v2.3H174.7L174.7,2.8z M174.7,2.8"/>
	<path class="st0" d="M195.6,21.4l-1.5-5h-8.1l-1.5,5h-2.7l6.6-20.9h3.4l6.8,20.9H195.6L195.6,21.4z M190.1,3l-3.3,11.2h6.8L190.1,3
		L190.1,3z M190.1,3"/>
	<path class="st0" d="M212.3,15.5c0,2.1-0.5,3.7-1.6,4.7c-1,1-2.6,1.5-4.7,1.5c-1,0-1.9-0.1-2.6-0.4c-0.7-0.3-1.3-0.7-1.8-1.2
		c-0.5-0.5-0.8-1.1-1-1.7c-0.2-0.7-0.4-1.4-0.6-2.1c-0.1-0.8-0.2-1.5-0.2-2.3c0-0.8,0-1.6,0-2.4V8.6c0-1.2,0.1-2.3,0.2-3.3
		c0.2-1,0.5-1.9,1-2.7c0.5-0.7,1.2-1.3,2-1.8c0.9-0.4,2-0.6,3.5-0.6c1.9,0,3.3,0.4,4.2,1.3c0.9,0.9,1.4,2.3,1.4,4.2v0.6h-2.8V6.1
		c0-0.5,0-1-0.1-1.5c-0.1-0.4-0.2-0.8-0.5-1.1c-0.2-0.3-0.6-0.5-0.9-0.7c-0.4-0.2-0.9-0.2-1.5-0.3c-0.9,0-1.7,0.2-2.2,0.6
		c-0.5,0.4-0.9,0.9-1.1,1.5c-0.3,0.6-0.4,1.3-0.4,2s0,1.5-0.1,2.2v4.4c0,1.1,0.1,2.1,0.2,2.8c0.1,0.8,0.3,1.4,0.6,1.9
		c0.3,0.5,0.7,0.9,1.1,1.1c0.4,0.2,1,0.3,1.6,0.3c2.3,0,3.4-1.5,3.5-4.4h2.7V15.5L212.3,15.5L212.3,15.5z M212.3,15.5"/>
	<path class="st0" d="M214.8,21.4V0.5h10.7v2.3h-8.1v6.7h7.5v2.3h-7.5v7.3h8.3v2.3H214.8L214.8,21.4z M214.8,21.4"/>
	<path class="st0" d="M240,16.1c0,0.9-0.1,1.6-0.4,2.3c-0.3,0.7-0.7,1.3-1.3,1.8c-0.6,0.5-1.3,0.9-2.1,1.1c-0.8,0.2-1.7,0.4-2.7,0.4
		c-2,0-3.5-0.5-4.6-1.5c-1-1-1.6-2.4-1.6-4.3V15h2.6v0.6c0,1.2,0.3,2.1,1,2.8c0.6,0.7,1.5,1,2.6,1c1.1,0,2-0.3,2.7-0.9
		c0.7-0.6,1-1.4,1-2.4c0-0.7-0.2-1.4-0.7-1.9c-0.4-0.5-1-1-1.6-1.3l-2.9-1.6c-1.5-0.8-2.5-1.6-3.2-2.5c-0.7-0.9-1-1.9-1-3.2
		c0-1.7,0.6-3.1,1.7-4.1c1.1-1,2.6-1.5,4.6-1.5c1.9,0,3.3,0.5,4.2,1.4c1,0.9,1.4,2.3,1.4,4.2v0.5H237V5.9c0-1.1-0.2-1.9-0.7-2.5
		c-0.5-0.6-1.3-0.9-2.4-0.9c-1,0-1.9,0.3-2.4,0.8c-0.6,0.5-0.9,1.3-0.9,2.2c0,0.5,0.1,1,0.3,1.4c0.2,0.4,0.5,0.8,0.9,1.1
		c0.4,0.3,0.8,0.6,1.2,0.9c0.4,0.3,0.9,0.5,1.4,0.7c0.8,0.3,1.4,0.7,1.9,1c0.5,0.3,0.9,0.6,1,0.7c0.9,0.8,1.6,1.5,2,2.2
		C239.8,14.2,240,15.1,240,16.1L240,16.1z M240,16.1"/>
	<path class="st0" d="M248.2,21.4V0.5h2.7v20.9H248.2L248.2,21.4z M248.2,21.4"/>
	<path class="st0" d="M265.4,21.4l-8.3-18.1v18.1h-2.4V0.5h3.7l8.2,17.9V0.5h2.4v20.9H265.4L265.4,21.4z M265.4,21.4"/>
	<path class="st0" d="M284.6,16.1c0,0.9-0.1,1.6-0.4,2.3c-0.3,0.7-0.7,1.3-1.3,1.8c-0.6,0.5-1.3,0.9-2.1,1.1
		c-0.8,0.2-1.7,0.4-2.7,0.4c-2,0-3.5-0.5-4.6-1.5c-1-1-1.6-2.4-1.6-4.3V15h2.6v0.6c0,1.2,0.3,2.1,0.9,2.8c0.6,0.7,1.5,1,2.6,1
		c1.1,0,2-0.3,2.7-0.9c0.7-0.6,1-1.4,1-2.4c0-0.7-0.2-1.4-0.7-1.9c-0.4-0.5-1-1-1.6-1.3l-2.9-1.6c-1.5-0.8-2.5-1.6-3.2-2.5
		c-0.7-0.9-1-1.9-1-3.2c0-1.7,0.6-3.1,1.7-4.1c1.1-1,2.6-1.5,4.6-1.5c1.9,0,3.3,0.5,4.2,1.4c1,0.9,1.4,2.3,1.4,4.2v0.5h-2.8V5.9
		c0-1.1-0.3-1.9-0.8-2.5c-0.5-0.6-1.3-0.9-2.4-0.9c-1,0-1.8,0.3-2.4,0.8c-0.6,0.5-0.9,1.3-0.9,2.2c0,0.5,0.1,1,0.3,1.4
		c0.2,0.4,0.5,0.8,0.9,1.1c0.4,0.3,0.8,0.6,1.2,0.9c0.4,0.3,0.9,0.5,1.4,0.7c0.8,0.3,1.4,0.7,1.9,1c0.5,0.3,0.9,0.6,1,0.7
		c0.9,0.8,1.6,1.5,2,2.2C284.4,14.2,284.6,15.1,284.6,16.1L284.6,16.1z M284.6,16.1"/>
	<path class="st0" d="M293.6,2.8v18.6h-2.7V2.8h-5.5V0.5H299v2.3H293.6L293.6,2.8z M293.6,2.8"/>
	<path class="st0" d="M300.8,21.4V0.5h2.7v20.9H300.8L300.8,21.4z M300.8,21.4"/>
	<path class="st0" d="M313.4,2.8v18.6h-2.7V2.8h-5.5V0.5h13.6v2.3H313.4L313.4,2.8z M313.4,2.8"/>
	<path class="st0" d="M333.3,14.4c0,1.1-0.1,2.1-0.3,2.9c-0.2,0.9-0.6,1.7-1.1,2.3c-0.5,0.7-1.2,1.2-2,1.5c-0.8,0.3-1.9,0.5-3.1,0.6
		c-2.2,0-3.8-0.6-4.8-1.8c-1.1-1.2-1.6-2.8-1.6-4.9V0.5h2.7V15c0,1.5,0.3,2.6,1,3.3c0.6,0.8,1.6,1.1,2.9,1.2c0.8,0,1.4-0.1,1.9-0.4
		c0.5-0.2,0.9-0.6,1.2-1c0.3-0.4,0.5-0.9,0.6-1.6c0.1-0.6,0.2-1.3,0.2-1.9V0.5h2.6V14.4L333.3,14.4L333.3,14.4z M333.3,14.4"/>
	<path class="st0" d="M342.9,2.8v18.6h-2.7V2.8h-5.5V0.5h13.6v2.3H342.9L342.9,2.8z M342.9,2.8"/>
	<path class="st0" d="M349.9,21.4V0.5h10.7v2.3h-8.1v6.7h7.5v2.3h-7.5v7.3h8.3v2.3H349.9L349.9,21.4z M349.9,21.4"/>
</g>
</svg>
